<svg width="442" height="453" viewBox="0 0 442 453" fill="none" xmlns="http://www.w3.org/2000/svg">
<g filter="url(#filter0_d_0_7)">
<path d="M215.87 124.371V121.203C215.87 118.329 218.167 116 221 116C223.833 116 226.13 118.329 226.13 121.203V124.371C226.13 127.245 223.833 129.574 221 129.574C218.167 129.574 215.87 127.244 215.87 124.371ZM166.263 140.64C167.213 142.31 168.937 143.244 170.711 143.244C171.58 143.244 172.462 143.019 173.269 142.547C175.723 141.111 176.565 137.928 175.15 135.439L173.59 132.697C172.173 130.207 169.035 129.354 166.583 130.789C164.129 132.225 163.287 135.408 164.703 137.897L166.263 140.64ZM268.729 142.547C269.536 143.02 270.418 143.245 271.288 143.245C273.061 143.245 274.786 142.311 275.736 140.642L277.297 137.899C278.713 135.41 277.873 132.228 275.419 130.791C272.966 129.355 269.829 130.208 268.412 132.696L266.851 135.439C265.434 137.927 266.275 141.109 268.729 142.547ZM308.116 180.591C308.986 180.591 309.869 180.366 310.677 179.893L313.381 178.309C315.834 176.872 316.674 173.689 315.257 171.201C313.841 168.712 310.704 167.86 308.25 169.298L305.546 170.881C303.093 172.318 302.253 175.501 303.669 177.99C304.619 179.658 306.343 180.591 308.116 180.591ZM321.45 272.874C314.789 286.265 296.175 295.263 275.131 295.263C260.705 295.263 247.192 291.042 238.005 283.816C232.743 287.474 227.187 289.83 221.682 290.55C221.431 290.583 221.18 290.595 220.937 290.592C220.732 290.591 220.525 290.577 220.319 290.55C214.814 289.829 209.258 287.474 203.995 283.816C194.808 291.043 181.296 295.263 166.869 295.263C145.825 295.263 127.211 286.265 120.55 272.874C119.817 271.4 119.816 269.661 120.55 268.186C125.465 258.303 136.704 250.809 150.926 247.561C143.546 236.929 140.852 224.365 144.194 213.618C144.603 212.303 145.511 211.206 146.716 210.569C155.145 206.115 165.835 205.792 176.24 209.491C177.785 204.3 180.216 199.783 183.51 196.262C184.637 195.058 186.264 194.472 187.887 194.684C190.577 195.036 193.28 195.779 195.955 196.873C201.382 185.238 209.382 176.561 218.859 172.15C220.217 171.517 221.78 171.517 223.138 172.15C232.612 176.559 240.609 185.23 246.038 196.858C248.713 195.773 251.418 195.037 254.114 194.684C255.738 194.472 257.364 195.058 258.49 196.262C261.785 199.783 264.215 204.3 265.76 209.49C276.166 205.792 286.855 206.115 295.283 210.568C296.488 211.205 297.396 212.302 297.805 213.617C301.149 224.365 298.454 236.928 291.073 247.56C305.296 250.808 316.535 258.302 321.45 268.185C322.183 269.661 322.183 271.4 321.45 272.874ZM259.339 258.114C264.909 256.71 270.443 253.819 275.318 249.67C285.274 241.197 290.488 228.859 288.557 218.889C282.532 216.515 275.016 216.883 267.61 219.897C268.321 229.613 266.594 240.602 262.327 251.419C261.421 253.718 260.42 255.954 259.339 258.114ZM204.95 201.943C210.86 206.211 216.372 212.117 220.989 219.183C225.63 212.041 231.136 206.144 237.032 201.902C233.081 193.243 227.425 186.47 221 182.728C214.563 186.476 208.901 193.265 204.95 201.943ZM166.681 249.67C171.555 253.819 177.09 256.711 182.662 258.114C181.58 255.953 180.581 253.719 179.673 251.417C175.407 240.602 173.68 229.612 174.39 219.897C166.984 216.882 159.469 216.513 153.442 218.887C151.511 228.859 156.725 241.196 166.681 249.67ZM195.891 276.915C193.682 274.661 191.572 272.172 189.594 269.483C179.429 269.307 168.824 265.081 160.086 257.642C159.718 257.329 159.357 257.013 159 256.693C146.506 258.263 136.034 263.487 131.107 270.529C137.097 279.075 151.259 284.856 166.868 284.856C177.95 284.856 188.549 281.892 195.891 276.915ZM219.006 237.683C213.894 224.723 205.347 214.035 196.363 208.641C196.112 208.52 195.875 208.381 195.652 208.226C193.526 207.018 191.381 206.111 189.254 205.542C187.127 208.627 185.704 212.573 184.995 217.068C184.977 217.342 184.937 217.616 184.875 217.888C183.691 226.569 185.103 237.174 189.197 247.552C193.329 258.026 199.703 267.015 206.739 272.926C206.903 273.046 207.062 273.178 207.214 273.32C211.026 276.435 215.021 278.643 218.949 279.693C225.254 270.55 225.38 253.842 219.006 237.683ZM252.802 247.551C256.894 237.177 258.307 226.576 257.126 217.896C257.061 217.617 257.02 217.336 257.002 217.056C256.294 212.565 254.87 208.623 252.745 205.541C250.649 206.099 248.534 206.985 246.433 208.165C246.155 208.368 245.853 208.545 245.53 208.691C238.552 212.898 231.818 220.306 226.748 229.634C227.376 231.002 227.971 232.397 228.531 233.817C234.348 248.564 235.445 263.634 232.077 275.357C232.992 274.727 233.901 274.041 234.8 273.307C234.942 273.175 235.09 273.052 235.244 272.939C242.286 267.028 248.668 258.033 252.802 247.551ZM310.892 270.529C305.965 263.487 295.493 258.263 282.998 256.693C282.642 257.013 282.279 257.33 281.912 257.642C273.174 265.079 262.57 269.306 252.405 269.483C250.428 272.172 248.318 274.661 246.108 276.915C253.451 281.891 264.051 284.856 275.131 284.856C290.74 284.856 304.902 279.075 310.892 270.529ZM270.728 309.015C268.592 307.127 265.352 307.354 263.491 309.521C260.256 313.288 244.934 318.593 221 318.593C197.065 318.593 181.744 313.288 178.509 309.521C176.648 307.354 173.408 307.127 171.271 309.015C169.135 310.902 168.912 314.189 170.773 316.356C178.787 325.689 202.839 329 221.001 329C239.162 329 263.214 325.688 271.228 316.356C273.088 314.189 272.864 310.902 270.728 309.015ZM153.565 198.915C156.29 199.694 159.125 198.084 159.894 195.318C167.562 167.71 192.69 148.428 221 148.428C249.31 148.428 274.438 167.71 282.106 195.318C282.744 197.613 284.802 199.112 287.041 199.112C287.502 199.112 287.97 199.048 288.435 198.915C291.162 198.136 292.75 195.262 291.981 192.496C283.073 160.422 253.884 138.021 221 138.021C188.116 138.021 158.927 160.422 150.019 192.496C149.251 195.262 150.838 198.136 153.565 198.915ZM221 311.512C225.407 311.512 240.196 311.035 245.459 304.902C247.319 302.734 247.095 299.447 244.958 297.56C242.833 295.683 239.614 295.899 237.75 298.035C236.58 299.113 230.508 301.105 221 301.105C211.49 301.105 205.417 299.113 204.248 298.034C202.383 295.899 199.166 295.683 197.04 297.561C194.904 299.449 194.68 302.735 196.541 304.902C201.806 311.035 216.594 311.512 221 311.512ZM128.619 178.308L131.321 179.892C132.129 180.366 133.012 180.591 133.883 180.591C135.655 180.591 137.379 179.659 138.33 177.99C139.747 175.502 138.908 172.319 136.454 170.882L133.752 169.298C131.301 167.861 128.161 168.711 126.744 171.2C125.327 173.688 126.166 176.87 128.619 178.308Z" fill="white"/>
</g>
<defs>
<filter id="filter0_d_0_7" x="0" y="0" width="442" height="453" filterUnits="userSpaceOnUse" color-interpolation-filters="sRGB">
<feFlood flood-opacity="0" result="BackgroundImageFix"/>
<feColorMatrix in="SourceAlpha" type="matrix" values="0 0 0 0 0 0 0 0 0 0 0 0 0 0 0 0 0 0 127 0" result="hardAlpha"/>
<feOffset dy="4"/>
<feGaussianBlur stdDeviation="60"/>
<feColorMatrix type="matrix" values="0 0 0 0 1 0 0 0 0 1 0 0 0 0 1 0 0 0 0.5 0"/>
<feBlend mode="normal" in2="BackgroundImageFix" result="effect1_dropShadow_0_7"/>
<feBlend mode="normal" in="SourceGraphic" in2="effect1_dropShadow_0_7" result="shape"/>
</filter>
</defs>
</svg>
